<?xml version="1.0" standalone="no"?>
<!DOCTYPE svg PUBLIC "-//W3C//DTD SVG 20010904//EN"
 "http://www.w3.org/TR/2001/REC-SVG-20010904/DTD/svg10.dtd">
<svg version="1.0" xmlns="http://www.w3.org/2000/svg"
 width="719.000000pt" height="719.000000pt" viewBox="0 0 719.000000 719.000000"
 preserveAspectRatio="xMidYMid meet">
<metadata>
Created by potrace 1.11, written by Peter Selinger 2001-2013
</metadata>
<g transform="translate(0.000000,719.000000) scale(0.100000,-0.100000)"
fill="#000000" stroke="none">
<path d="M3515 7165 c-16 -7 -40 -24 -51 -37 -20 -21 -104 -155 -104 -164 0
-3 -36 -65 -77 -132 -13 -21 -17 -19 -135 114 -80 90 -133 141 -157 151 -77
33 -167 12 -217 -51 -18 -23 -48 -92 -80 -188 -28 -84 -55 -153 -60 -155 -6
-2 -19 5 -29 14 -57 52 -248 185 -277 194 -56 16 -121 2 -167 -38 -23 -19 -45
-43 -51 -52 -9 -18 -24 -99 -35 -191 -3 -25 -8 -63 -12 -85 -3 -22 -5 -50 -5
-62 1 -12 -2 -24 -6 -27 -5 -3 -77 29 -161 70 -122 59 -162 74 -198 74 -107 0
-186 -80 -187 -189 0 -71 15 -285 20 -290 2 -2 -1 -10 -7 -17 -8 -10 -17 -10
-37 -3 -36 14 -249 69 -287 74 -103 14 -205 -79 -205 -187 0 -15 18 -94 40
-175 22 -81 40 -154 40 -161 0 -9 -14 -11 -52 -7 -29 2 -107 7 -174 11 -160 8
-211 -12 -255 -98 -36 -70 -27 -114 56 -285 41 -86 75 -157 75 -158 0 -4 -60
-14 -115 -20 -22 -2 -85 -11 -139 -19 -81 -12 -105 -20 -135 -44 -52 -42 -73
-84 -74 -145 -1 -65 9 -84 128 -235 53 -68 95 -125 93 -127 -2 -2 -70 -26
-152 -54 -183 -63 -212 -80 -241 -143 -44 -96 -21 -171 81 -258 16 -14 61 -52
99 -85 71 -61 85 -75 85 -87 0 -3 -35 -26 -77 -50 -43 -23 -95 -53 -116 -65
-81 -45 -117 -76 -137 -119 -35 -72 -17 -167 42 -220 12 -12 85 -56 161 -99
75 -42 137 -78 137 -80 0 -1 -53 -49 -118 -106 -151 -134 -140 -123 -157 -163
-35 -83 -4 -191 67 -234 18 -10 99 -41 180 -68 82 -27 148 -52 148 -56 0 -4
-36 -53 -80 -110 -44 -57 -92 -123 -107 -147 -46 -76 -36 -170 25 -234 30 -31
95 -52 192 -62 36 -4 73 -9 84 -11 10 -2 44 -6 75 -10 31 -3 57 -8 59 -9 2 -2
-28 -68 -67 -147 -39 -78 -74 -161 -79 -183 -22 -106 61 -210 173 -216 31 -2
205 8 287 17 36 4 47 2 43 -8 -36 -112 -85 -326 -81 -358 11 -90 73 -153 163
-164 32 -5 214 37 356 80 15 5 17 0 12 -38 -2 -24 -7 -91 -10 -150 -3 -59 -6
-111 -7 -115 -1 -5 1 -29 6 -55 13 -83 97 -147 191 -148 18 0 95 32 187 77 87
42 159 75 162 72 2 -2 7 -26 10 -54 4 -27 9 -61 11 -75 2 -14 9 -63 15 -108
17 -127 30 -153 102 -198 40 -25 115 -32 160 -15 13 5 82 54 153 110 72 55
132 101 135 101 3 0 27 -64 54 -142 26 -79 55 -158 64 -176 31 -61 107 -102
179 -96 55 4 101 34 165 108 35 39 77 87 95 106 17 19 40 46 50 59 l20 24 49
-84 c27 -46 51 -88 54 -94 72 -142 138 -193 235 -182 70 7 116 44 167 134 25
43 65 111 88 152 l42 73 22 -23 c11 -13 48 -55 81 -93 106 -123 130 -145 170
-162 87 -36 186 -5 230 71 13 22 44 104 71 183 26 78 50 142 53 142 6 0 141
-100 191 -141 75 -62 102 -74 166 -74 53 0 69 4 105 30 47 34 75 80 83 140 3
22 8 60 11 85 3 25 8 56 10 70 2 14 7 50 11 80 3 30 7 56 8 57 1 1 72 -32 157
-73 131 -65 162 -76 206 -76 61 -1 109 25 151 80 25 33 27 41 26 136 0 56 -3
143 -7 194 -3 53 -2 92 3 92 5 0 35 -7 67 -16 206 -56 261 -67 305 -60 84 13
148 85 153 172 2 31 -4 61 -30 154 -8 29 -55 205 -55 208 0 2 4 1 8 -2 9 -6
258 -20 327 -18 63 1 121 40 153 102 29 56 25 125 -12 196 -78 151 -123 251
-113 251 47 0 321 41 347 51 63 25 111 98 112 171 0 34 -24 109 -40 121 -4 3
-27 32 -52 65 -25 33 -47 62 -50 65 -3 3 -23 29 -44 57 l-38 53 24 9 c13 5 79
28 148 51 69 24 136 48 150 55 88 45 122 170 71 257 -11 18 -60 68 -108 110
-48 41 -105 91 -125 109 l-38 34 143 82 c188 108 217 140 217 237 0 83 -60
154 -180 214 -63 30 -170 95 -170 102 0 4 33 36 73 71 39 35 79 70 88 79 9 8
32 30 52 48 50 44 71 88 71 148 0 56 -29 117 -70 147 -13 10 -95 43 -181 72
-86 30 -158 57 -160 59 -3 2 33 53 79 113 122 157 128 168 137 224 7 44 5 57
-18 102 -33 66 -91 103 -176 111 -33 3 -69 8 -80 10 -11 2 -45 7 -75 10 -30 4
-64 8 -75 11 -11 2 -25 4 -31 4 -6 1 22 70 64 154 88 179 95 215 56 294 -21
43 -34 56 -77 77 -56 27 -48 27 -305 11 -98 -6 -104 -6 -98 12 3 10 15 54 27
98 63 230 65 259 27 327 -36 64 -121 103 -194 88 -22 -4 -98 -24 -170 -44 -73
-20 -134 -36 -137 -36 -6 0 -4 43 8 231 4 67 3 120 -4 146 -21 78 -122 141
-203 128 -18 -3 -100 -39 -183 -79 -82 -41 -151 -73 -152 -72 -1 1 -5 24 -8
51 -4 28 -8 61 -11 75 -2 14 -6 50 -9 80 -16 147 -49 215 -122 245 -47 20
-116 19 -156 -2 -30 -15 -226 -161 -255 -190 -7 -7 -17 -13 -21 -13 -4 0 -31
69 -60 152 -28 84 -63 170 -77 190 -33 48 -85 72 -150 71 -83 -2 -90 -6 -254
-193 -36 -40 -70 -80 -75 -88 -9 -11 -17 -3 -43 38 -18 28 -32 53 -32 55 0 8
-103 181 -119 199 -44 51 -149 71 -216 41z m126 -812 c58 -35 75 -127 32 -175
-80 -89 -227 -27 -208 88 13 87 102 131 176 87z m-163 -687 c69 -23 134 -24
202 -1 49 16 74 37 221 182 l166 164 49 -11 c27 -7 56 -13 64 -15 32 -6 101
-26 171 -49 511 -164 972 -511 1280 -963 38 -56 72 -108 74 -116 3 -7 -38
-112 -90 -233 -121 -275 -136 -316 -136 -373 -1 -57 25 -135 58 -179 38 -50
89 -79 307 -174 l201 -87 5 -68 c7 -84 4 -297 -5 -378 -3 -33 -6 -67 -7 -75 0
-8 -9 -64 -20 -125 -57 -332 -186 -653 -373 -935 -68 -103 -185 -253 -192
-247 -5 6 -10 33 -18 107 -3 36 -8 72 -10 80 -2 8 -6 40 -10 71 -3 31 -8 67
-10 80 -3 13 -7 41 -10 64 -7 49 -12 76 -31 185 -9 47 -17 94 -19 105 -3 23
-34 179 -50 255 -3 14 -7 34 -9 45 -31 163 -150 614 -219 830 -21 63 -38 142
-42 185 -13 168 -17 199 -36 300 -36 193 -114 411 -197 554 l-35 59 22 71 c12
39 23 78 25 86 2 8 21 65 41 125 44 132 53 205 31 256 -23 55 -61 94 -113 119
-75 35 -119 26 -344 -73 l-196 -85 -69 18 c-179 48 -319 65 -524 65 -210 0
-336 -17 -532 -71 l-67 -18 -168 83 c-225 112 -258 121 -346 92 -44 -15 -103
-76 -120 -126 -23 -66 -20 -83 85 -414 36 -114 36 -117 15 -161 -30 -65 -114
-333 -131 -420 -3 -14 -14 -68 -25 -120 -10 -52 -22 -119 -26 -149 -4 -30 -9
-63 -11 -75 -2 -12 -7 -52 -10 -91 -8 -97 -7 -94 -52 -245 -69 -232 -164 -609
-177 -705 -2 -11 -8 -41 -14 -68 -6 -26 -14 -64 -17 -85 -3 -20 -10 -56 -15
-79 -5 -23 -11 -63 -14 -89 -4 -26 -8 -50 -10 -54 -2 -3 -8 -42 -14 -86 -7
-44 -14 -91 -16 -104 -5 -27 -25 -170 -31 -215 -6 -61 -14 -132 -20 -195 -4
-36 -8 -72 -10 -80 -1 -8 -3 -29 -3 -46 -1 -30 -4 -32 -57 -43 l-57 -11 -41
47 c-312 355 -533 823 -592 1258 -4 28 -8 59 -10 70 -14 72 -21 318 -14 469
l3 69 76 34 c376 170 401 186 447 279 21 44 27 70 27 123 0 65 -4 78 -111 314
-62 135 -112 249 -112 254 0 14 124 197 197 293 37 47 128 146 203 220 200
199 387 333 637 459 67 34 125 61 128 61 4 0 21 7 38 15 62 28 214 78 322 105
l110 27 165 -162 c143 -140 172 -164 218 -179z m-2336 -1186 c37 -15 57 -35
72 -71 12 -28 12 -40 1 -72 -7 -21 -23 -47 -36 -57 -26 -24 -17 -20 -61 -26
-71 -10 -131 43 -131 116 0 49 24 87 66 105 38 17 58 18 89 5z m4995 -33 c32
-30 36 -40 36 -79 0 -95 -90 -153 -170 -110 -78 42 -83 158 -9 203 49 30 100
25 143 -14z m-4026 -2910 c77 -52 64 -167 -23 -202 -51 -20 -89 -12 -128 27
-55 55 -40 149 31 185 37 19 82 15 120 -10z m3059 8 c38 -12 70 -63 70 -112 0
-38 -5 -50 -34 -79 -29 -29 -41 -34 -79 -34 -50 0 -89 24 -110 68 -28 57 -2
126 56 152 38 17 55 18 97 5z"/>
</g>
</svg>
